<?xml version="1.0" encoding="UTF-8" standalone="no"?>
<svg xmlns="http://www.w3.org/2000/svg" xmlns:xlink="http://www.w3.org/1999/xlink" contentStyleType="text/css" height="717px" preserveAspectRatio="none" style="width:684px;height:717px;background:#FFFFFF;" version="1.1" viewBox="0 0 684 717" width="684px" zoomAndPan="magnify"><defs/><g><ellipse cx="335.5" cy="16" fill="#222222" rx="10" ry="10" style="stroke:none;stroke-width:1.0;"/><g id="PairwiseDesignWithAnnotation"><rect fill="#F1F1F1" height="78.2031" rx="12.5" ry="12.5" style="stroke:#181818;stroke-width:0.5;" width="242" x="214.5" y="87"/><line style="stroke:#181818;stroke-width:0.5;" x1="214.5" x2="456.5" y1="113.2969" y2="113.2969"/><text fill="#000000" font-family="sans-serif" font-size="14" lengthAdjust="spacing" textLength="222" x="224.5" y="104.9951">PairwiseDesignWithAnnotation</text><ellipse cx="225" cy="124.7656" fill="#000000" rx="2.5" ry="2.5" style="stroke:#000000;stroke-width:0.0;"/><text fill="#000000" font-family="sans-serif" font-size="12" lengthAdjust="spacing" textLength="110" x="231.5" y="129.4355">Design of analysis</text><ellipse cx="225" cy="138.7344" fill="#000000" rx="2.5" ry="2.5" style="stroke:#000000;stroke-width:0.0;"/><text fill="#000000" font-family="sans-serif" font-size="12" lengthAdjust="spacing" textLength="148" x="231.5" y="143.4043">Paths to expression files</text><ellipse cx="225" cy="152.7031" fill="#000000" rx="2.5" ry="2.5" style="stroke:#000000;stroke-width:0.0;"/><text fill="#000000" font-family="sans-serif" font-size="12" lengthAdjust="spacing" textLength="153" x="231.5" y="157.373">Transcriptome annotation</text></g><g id="elem_GMN5"><path d="M6,97.5 L6,154.3 A0,0 0 0 0 6,154.3 L179,154.3 A0,0 0 0 0 179,154.3 L179,130 L214.425,126 L179,122 L179,107.5 L169,97.5 L6,97.5 A0,0 0 0 0 6,97.5 " fill="#FEFFDD" style="stroke:#181818;stroke-width:0.5;"/><path d="M169,97.5 L169,107.5 L179,107.5 L169,97.5 " fill="#FEFFDD" style="stroke:#181818;stroke-width:0.5;"/><text fill="#000000" font-family="monospace" font-size="13" font-weight="bold" lengthAdjust="spacing" textLength="120" x="12" y="114.486">design_filename</text><text fill="#000000" font-family="monospace" font-size="13" font-weight="bold" lengthAdjust="spacing" textLength="152" x="12" y="130.086">annotation_filename</text><text fill="#000000" font-family="monospace" font-size="13" font-weight="bold" lengthAdjust="spacing" textLength="144" x="12" y="145.686">idmapping_filename</text></g><g id="ExprDataTranscript"><rect fill="#F1F1F1" height="50.2656" rx="12.5" ry="12.5" style="stroke:#181818;stroke-width:0.5;" width="226" x="222.5" y="242"/><line style="stroke:#181818;stroke-width:0.5;" x1="222.5" x2="448.5" y1="268.2969" y2="268.2969"/><text fill="#000000" font-family="sans-serif" font-size="14" lengthAdjust="spacing" textLength="141" x="265" y="259.9951">ExprDataTranscript</text><text fill="#000000" font-family="sans-serif" font-size="12" lengthAdjust="spacing" textLength="206" x="227.5" y="284.4355">Expression data at transcript level</text></g><g id="ExprDataGene"><rect fill="#F1F1F1" height="50.2656" rx="12.5" ry="12.5" style="stroke:#181818;stroke-width:0.5;" width="200" x="235.5" y="376"/><line style="stroke:#181818;stroke-width:0.5;" x1="235.5" x2="435.5" y1="402.2969" y2="402.2969"/><text fill="#000000" font-family="sans-serif" font-size="14" lengthAdjust="spacing" textLength="105" x="283" y="393.9951">ExprDataGene</text><text fill="#000000" font-family="sans-serif" font-size="12" lengthAdjust="spacing" textLength="180" x="240.5" y="418.4355">Expression data at gene level</text></g><g id="PairwiseLFC"><rect fill="#F1F1F1" height="78.2031" rx="12.5" ry="12.5" style="stroke:#181818;stroke-width:0.5;" width="161" x="255" y="494"/><line style="stroke:#181818;stroke-width:0.5;" x1="255" x2="416" y1="520.2969" y2="520.2969"/><text fill="#000000" font-family="sans-serif" font-size="14" lengthAdjust="spacing" textLength="84" x="293.5" y="511.9951">PairwiseLFC</text><text fill="#000000" font-family="sans-serif" font-size="12" lengthAdjust="spacing" textLength="141" x="260" y="536.4355">Pairwise Log2FC values</text><ellipse cx="265.5" cy="545.7344" fill="#000000" rx="2.5" ry="2.5" style="stroke:#000000;stroke-width:0.0;"/><text fill="#000000" font-family="sans-serif" font-size="12" lengthAdjust="spacing" textLength="102" x="272" y="550.4043">group VS control</text><ellipse cx="265.5" cy="559.7031" fill="#000000" rx="2.5" ry="2.5" style="stroke:#000000;stroke-width:0.0;"/><text fill="#000000" font-family="sans-serif" font-size="12" lengthAdjust="spacing" textLength="108" x="272" y="564.373">control VS control</text></g><g id="PairwiseRstanAnalysis"><rect fill="#F1F1F1" height="78.2031" rx="12.5" ry="12.5" style="stroke:#181818;stroke-width:0.5;" width="225" x="223" y="633"/><line style="stroke:#181818;stroke-width:0.5;" x1="223" x2="448" y1="659.2969" y2="659.2969"/><text fill="#000000" font-family="sans-serif" font-size="14" lengthAdjust="spacing" textLength="156" x="257.5" y="650.9951">PairwiseRstanAnalysis</text><text fill="#000000" font-family="sans-serif" font-size="12" lengthAdjust="spacing" textLength="205" x="228" y="675.4355">Bayesian inference of parameters</text><text fill="#000000" font-family="sans-serif" font-size="12" lengthAdjust="spacing" textLength="166" x="228" y="689.4043">based on statistical models</text><text fill="#000000" font-family="sans-serif" font-size="12" lengthAdjust="spacing" textLength="162" x="228" y="703.373">modelling LFC distributions</text></g><g id="elem_GMN20"><path d="M483,659 L483,668 L448.254,672 L483,676 L483,684.6 A0,0 0 0 0 483,684.6 L648,684.6 A0,0 0 0 0 648,684.6 L648,669 L638,659 L483,659 A0,0 0 0 0 483,659 " fill="#FEFFDD" style="stroke:#181818;stroke-width:0.5;"/><path d="M638,659 L638,669 L648,669 L638,659 " fill="#FEFFDD" style="stroke:#181818;stroke-width:0.5;"/><text fill="#000000" font-family="monospace" font-size="13" font-weight="bold" lengthAdjust="spacing" textLength="144" x="489" y="675.986">statistical_models</text></g><g id="PairwiseDESeq2"><rect fill="#F1F1F1" height="64.2344" rx="12.5" ry="12.5" style="stroke:#181818;stroke-width:0.5;" width="151" x="49" y="369"/><line style="stroke:#181818;stroke-width:0.5;" x1="49" x2="200" y1="395.2969" y2="395.2969"/><text fill="#000000" font-family="sans-serif" font-size="14" lengthAdjust="spacing" textLength="113" x="68" y="386.9951">PairwiseDESeq2</text><text fill="#000000" font-family="sans-serif" font-size="12" lengthAdjust="spacing" textLength="131" x="54" y="411.4355">Pairwise comparisons</text><text fill="#000000" font-family="sans-serif" font-size="12" lengthAdjust="spacing" textLength="84" x="54" y="425.4043">using DESeq2</text></g><!--link *start to PairwiseDesignWithAnnotation--><g id="link_*start_PairwiseDesignWithAnnotation"><path d="M335.5,26.208 C335.5,38.529 335.5,61.21 335.5,81.735 " fill="none" id="*start-to-PairwiseDesignWithAnnotation" style="stroke:#181818;stroke-width:1.0;"/><polygon fill="#181818" points="335.5,86.9,339.5,77.9,335.5,81.9,331.5,77.9,335.5,86.9" style="stroke:#181818;stroke-width:1.0;"/></g><!--link PairwiseDesignWithAnnotation to ExprDataTranscript--><g id="link_PairwiseDesignWithAnnotation_ExprDataTranscript"><path d="M335.5,165.35 C335.5,187.871 335.5,215.893 335.5,236.646 " fill="none" id="PairwiseDesignWithAnnotation-to-ExprDataTranscript" style="stroke:#181818;stroke-width:1.0;"/><polygon fill="#181818" points="335.5,241.758,339.5,232.758,335.5,236.758,331.5,232.758,335.5,241.758" style="stroke:#181818;stroke-width:1.0;"/><text fill="#000000" font-family="sans-serif" font-size="13" font-weight="bold" lengthAdjust="spacing" textLength="236" x="336.5" y="208.0669">Import data at transcript level</text></g><!--link ExprDataTranscript to ExprDataTranscript--><g id="link_ExprDataTranscript_ExprDataTranscript"><path d="M448.74,261.518 C469.188,262.221 483.5,264.048 483.5,267 C483.5,269.698 471.542,271.457 453.871,272.276 " fill="none" id="ExprDataTranscript-to-ExprDataTranscript" style="stroke:#181818;stroke-width:1.0;"/><polygon fill="#181818" points="448.74,272.482,457.8938,276.1162,453.7359,272.2806,457.5715,268.1227,448.74,272.482" style="stroke:#181818;stroke-width:1.0;"/><text fill="#000000" font-family="sans-serif" font-size="13" font-weight="bold" lengthAdjust="spacing" textLength="63" x="489.5" y="271.5669">Filtering</text></g><!--link ExprDataTranscript to ExprDataTranscript--><g id="link_ExprDataTranscript_ExprDataTranscript"><path d="M448.63,255.618 C505.447,254.336 558.5,258.13 558.5,267 C558.5,275.593 508.711,279.422 453.944,278.487 " fill="none" id="ExprDataTranscript-to-ExprDataTranscript-1" style="stroke:#181818;stroke-width:1.0;"/><polygon fill="#181818" points="448.63,278.382,457.5494,282.5587,453.629,278.4806,457.7071,274.5602,448.63,278.382" style="stroke:#181818;stroke-width:1.0;"/><text fill="#000000" font-family="sans-serif" font-size="13" font-weight="bold" lengthAdjust="spacing" textLength="107" x="564.5" y="271.5669">Normalization</text></g><!--link ExprDataTranscript to ExprDataGene--><g id="link_ExprDataTranscript_ExprDataGene"><path d="M335.5,292.211 C335.5,314.353 335.5,347.156 335.5,370.755 " fill="none" id="ExprDataTranscript-to-ExprDataGene" style="stroke:#181818;stroke-width:1.0;"/><polygon fill="#181818" points="335.5,375.943,339.5,366.943,335.5,370.943,331.5,366.943,335.5,375.943" style="stroke:#181818;stroke-width:1.0;"/><text fill="#000000" font-family="sans-serif" font-size="13" font-weight="bold" lengthAdjust="spacing" textLength="114" x="336.5" y="335.0669">Summarization</text></g><!--link ExprDataGene to ExprDataGene--><g id="link_ExprDataGene_ExprDataGene"><path d="M435.585,395.409 C455.931,396.018 470.5,397.882 470.5,401 C470.5,403.85 458.327,405.652 440.697,406.406 " fill="none" id="ExprDataGene-to-ExprDataGene" style="stroke:#181818;stroke-width:1.0;"/><polygon fill="#181818" points="435.585,406.591,444.7232,410.2644,440.5818,406.411,444.4352,402.2696,435.585,406.591" style="stroke:#181818;stroke-width:1.0;"/><text fill="#000000" font-family="sans-serif" font-size="13" font-weight="bold" lengthAdjust="spacing" textLength="63" x="476.5" y="405.5669">Filtering</text></g><!--link ExprDataGene to ExprDataGene--><g id="link_ExprDataGene_ExprDataGene"><path d="M435.662,389.784 C491.444,388.058 545.5,391.797 545.5,401 C545.5,409.916 494.77,413.703 440.885,412.362 " fill="none" id="ExprDataGene-to-ExprDataGene-1" style="stroke:#181818;stroke-width:1.0;"/><polygon fill="#181818" points="435.662,412.216,444.5464,416.4665,440.66,412.356,444.7705,408.4696,435.662,412.216" style="stroke:#181818;stroke-width:1.0;"/><text fill="#000000" font-family="sans-serif" font-size="13" font-weight="bold" lengthAdjust="spacing" textLength="107" x="551.5" y="405.5669">Normalization</text></g><!--link ExprDataGene to PairwiseLFC--><g id="link_ExprDataGene_PairwiseLFC"><path d="M335.5,426.147 C335.5,443.679 335.5,467.88 335.5,488.716 " fill="none" id="ExprDataGene-to-PairwiseLFC" style="stroke:#181818;stroke-width:1.0;"/><polygon fill="#181818" points="335.5,493.935,339.5,484.935,335.5,488.935,331.5,484.935,335.5,493.935" style="stroke:#181818;stroke-width:1.0;"/></g><!--link PairwiseLFC to PairwiseRstanAnalysis--><g id="link_PairwiseLFC_PairwiseRstanAnalysis"><path d="M335.5,572.162 C335.5,589.239 335.5,609.468 335.5,627.1634 " fill="none" id="PairwiseLFC-to-PairwiseRstanAnalysis" style="stroke:#181818;stroke-width:1.0;"/><polygon fill="#181818" points="335.5,632.5674,339.5,623.5674,335.5,627.5674,331.5,623.5674,335.5,632.5674" style="stroke:#181818;stroke-width:1.0;"/></g><!--reverse link PairwiseDESeq2 to ExprDataGene--><g id="link_PairwiseDESeq2_ExprDataGene"><path d="M205.54,401 C215.507,401 225.474,401 235.441,401 " fill="none" id="PairwiseDESeq2-backto-ExprDataGene" style="stroke:#181818;stroke-width:1.0;"/><polygon fill="#181818" points="200.328,401,209.328,405,205.328,401,209.328,397,200.328,401" style="stroke:#181818;stroke-width:1.0;"/></g><!--SRC=[ZLJBJiD03BpdAwmU8_N2iGSaA2r2gX2Y20u88PEugQLzXFMcFBwUtQIqJKbIRjaTZprZU_ESli1uV0vtoEw3XQv8k31FxDSNnbYFdgr9Xi09fD3SWrq16bHVmW8dENVermBU0dsMZaJ2DQnOqJ-e3mwDP8vBRpM5aZkTuOD0qSedaAQZKLxpNsDMWvf6epHjW3sb0-HSOrcoATeOcHnY_a5rTIjdmT0LUjpBXA0wlT6bTHxoW01wy7jKqOPKAD59dEtRqqVj8Wu8cRFov8B1xf83p5lhD2h-hhsUPb-JePgthBH6zvUt3UYmM4IaRQuExapVPQW_ki_4Zl4xuCLycXnyJtO0B6nnDf_21bL5qev9eN2sAk5n2PartbbrZ6-lUo9Q2kx5exdOFgbcknqNw-rwIzmvyPoXUjKs9oNTYzhACe5B_0gRYmROhCYHoIW-t19TsFJGHkdZlQ5G3c561tMXgTj7gL4L1WFHMHv8Zj-gs7SvQdjyj8T_eTcIti-Izl5W09dLGJ1BJ7GSL4ais9n-0000]--></g></svg>